<?xml version="1.0" encoding="iso-8859-1"?>
<!-- Generator: Adobe Illustrator 19.0.0, SVG Export Plug-In . SVG Version: 6.00 Build 0)  -->
<svg version="1.1" id="Layer_1" xmlns="http://www.w3.org/2000/svg" xmlns:xlink="http://www.w3.org/1999/xlink" x="0px" y="0px"
	 viewBox="0 0 512.001 512.001" style="enable-background:new 0 0 512.001 512.001;" xml:space="preserve">
<g>
	<g>
		<path d="M360.278,237.632h-68.502c-4.932,0-8.929,3.998-8.929,8.929v99.082c0,3.928,2.567,7.394,6.324,8.54l38.991,11.897v57.014
			l-33.78-10.307c-2.705-0.826-5.644-0.321-7.918,1.364c-2.274,1.685-3.616,4.347-3.616,7.177v72.815h-53.693v-35.095
			c0-4.931-3.998-8.929-8.929-8.929c-4.931,0-8.929,3.998-8.929,8.929v44.024c0,4.931,3.998,8.929,8.929,8.929h71.551
			c4.932,0,8.929-3.998,8.929-8.929v-69.686l33.78,10.306c2.707,0.826,5.646,0.319,7.918-1.364c2.274-1.685,3.616-4.347,3.616-7.177
			v-75.683c0-3.928-2.567-7.394-6.324-8.54l-38.991-11.897v-83.541h59.573c4.932,0,8.929-3.998,8.929-8.929
			S365.211,237.632,360.278,237.632z"/>
	</g>
</g>
<g>
	<g>
		<path d="M408.456,164.893h-107.75v-28.13h36.386c4.932,0,8.929-3.998,8.929-8.929V56.281c0-4.931-3.997-8.929-8.929-8.929h-36.386
			V8.929c0-4.931-3.997-8.929-8.929-8.929h-71.551c-4.931,0-8.929,3.998-8.929,8.929v38.423H174.91
			c-4.931,0-8.929,3.998-8.929,8.929v71.552c0,4.931,3.998,8.929,8.929,8.929h36.386v28.13h-107.75
			c-4.931,0-8.929,3.998-8.929,8.929v72.738c0,4.931,3.998,8.929,8.929,8.929h107.75v56.263l-33.78-10.306
			c-2.705-0.826-5.643-0.32-7.918,1.364c-2.274,1.685-3.616,4.347-3.616,7.177v75.683c0,3.928,2.567,7.394,6.324,8.54l38.991,11.897
			v23.176c0,4.931,3.998,8.929,8.929,8.929c4.931,0,8.929-3.998,8.929-8.929v-29.788c0-3.928-2.567-7.394-6.324-8.54l-38.991-11.897
			v-57.014l33.78,10.307c2.707,0.827,5.646,0.32,7.918-1.364c2.274-1.685,3.616-4.347,3.616-7.177v-77.253
			c0-4.931-3.998-8.929-8.929-8.929H112.475v-54.88h107.751c4.931,0,8.929-3.998,8.929-8.929v-45.988
			c0-4.931-3.998-8.929-8.929-8.929h-36.386V65.21h36.386c4.931,0,8.929-3.998,8.929-8.929V17.858h53.693v38.423
			c0,4.931,3.997,8.929,8.929,8.929h36.386v53.694h-36.386c-4.932,0-8.929,3.998-8.929,8.929v45.988
			c0,4.931,3.997,8.929,8.929,8.929h107.75v54.88h-9.485c-4.932,0-8.929,3.998-8.929,8.929c0,4.931,3.997,8.929,8.929,8.929h18.414
			c4.932,0,8.929-3.998,8.929-8.929v-72.738C417.385,168.89,413.388,164.893,408.456,164.893z"/>
	</g>
</g>
<g>
</g>
<g>
</g>
<g>
</g>
<g>
</g>
<g>
</g>
<g>
</g>
<g>
</g>
<g>
</g>
<g>
</g>
<g>
</g>
<g>
</g>
<g>
</g>
<g>
</g>
<g>
</g>
<g>
</g>
</svg>
