<?xml version="1.0" encoding="iso-8859-1"?>
<!-- Generator: Adobe Illustrator 19.0.0, SVG Export Plug-In . SVG Version: 6.00 Build 0)  -->
<svg version="1.1" id="Layer_1" xmlns="http://www.w3.org/2000/svg" xmlns:xlink="http://www.w3.org/1999/xlink" x="0px" y="0px"
	 viewBox="0 0 512.001 512.001" style="enable-background:new 0 0 512.001 512.001;" xml:space="preserve">
<g>
	<g>
		<path d="M474.708,120.852c-1.121-3.45-4.103-5.964-7.694-6.485l-67.992-9.879l-30.407-61.611
			c-1.606-3.253-4.919-5.313-8.547-5.313c-3.628,0-6.94,2.06-8.547,5.313l-30.407,61.611l-67.991,9.879
			c-3.59,0.522-6.573,3.036-7.694,6.485c-1.121,3.45-0.186,7.238,2.41,9.769l49.209,47.958l-11.615,67.716
			c-0.614,3.576,0.856,7.188,3.79,9.32c2.934,2.132,6.823,2.414,10.036,0.726l60.813-31.971l60.813,31.971
			c1.395,0.733,2.917,1.095,4.433,1.095c1.977,0,3.943-0.614,5.602-1.82c2.935-2.132,4.405-5.746,3.79-9.32l-11.614-67.716
			l4.625-4.508c3.769-3.674,3.845-9.708,0.172-13.477c-3.672-3.768-9.707-3.846-13.475-0.172l-8.212,8.005
			c-2.247,2.189-3.271,5.344-2.74,8.435l9.196,53.623l-48.156-25.317c-2.778-1.46-6.093-1.46-8.869,0l-48.156,25.317l9.197-53.623
			c0.531-3.091-0.494-6.247-2.74-8.435l-38.96-37.976l53.839-7.823c3.104-0.451,5.788-2.4,7.175-5.214l24.078-48.789l24.078,48.789
			c1.389,2.812,4.071,4.762,7.175,5.214l53.841,7.823l-6.485,6.32c-3.769,3.674-3.845,9.708-0.173,13.477
			c3.676,3.769,9.709,3.848,13.477,0.172l20.312-19.799C474.895,128.088,475.829,124.302,474.708,120.852z"/>
	</g>
</g>
<g>
	<g>
		<path d="M506.232,274.493c-3.856-1.657-8.35-0.596-11.055,2.62c-35.233,41.868-86.778,65.883-141.421,65.883
			c-101.873,0-184.751-82.879-184.751-184.751c0-19.503,3.022-38.703,8.982-57.067c1.624-5.006-1.117-10.381-6.122-12.007
			c-5.008-1.625-10.383,1.116-12.007,6.122c-6.578,20.267-9.914,41.448-9.914,62.951c0,112.382,91.43,203.811,203.811,203.811
			c49.719,0,97.113-18.021,133.999-50.246c-25.53,105.111-120.048,181.131-230.96,181.131
			C125.708,492.94,19.06,386.292,19.06,255.205c0-110.914,76.008-205.427,181.118-230.956c-9.614,11.003-18.017,23.013-25.119,35.92
			c-2.536,4.611-0.855,10.407,3.756,12.944c4.611,2.536,10.405,0.855,12.944-3.756c11.041-20.069,25.551-37.744,43.126-52.533
			c3.214-2.705,4.278-7.196,2.62-11.056c-1.66-3.859-5.643-6.178-9.825-5.707C165.393,7.094,107.901,36.749,65.796,83.564
			C23.368,130.741,0,191.697,0,255.205C0,396.803,115.199,512,256.797,512c63.507,0,124.463-23.368,171.639-65.798
			c46.815-42.104,76.47-99.595,83.504-161.884C512.41,280.143,510.093,276.153,506.232,274.493z"/>
	</g>
</g>
<g>
</g>
<g>
</g>
<g>
</g>
<g>
</g>
<g>
</g>
<g>
</g>
<g>
</g>
<g>
</g>
<g>
</g>
<g>
</g>
<g>
</g>
<g>
</g>
<g>
</g>
<g>
</g>
<g>
</g>
</svg>
