<?xml version="1.0" encoding="iso-8859-1"?>
<!-- Generator: Adobe Illustrator 19.0.0, SVG Export Plug-In . SVG Version: 6.00 Build 0)  -->
<svg version="1.1" id="Layer_1" xmlns="http://www.w3.org/2000/svg" xmlns:xlink="http://www.w3.org/1999/xlink" x="0px" y="0px"
	 viewBox="0 0 512 512" style="enable-background:new 0 0 512 512;" xml:space="preserve">
<g>
	<g>
		<path d="M408.389,256.003l69.315-120.059c1.419-2.457,1.419-5.485,0-7.944c-1.419-2.458-4.041-3.972-6.879-3.972h-34.2
			c-4.388,0-7.944,3.557-7.944,7.944c0,4.387,3.556,7.944,7.944,7.944h20.442L347.485,329.718h-30.578l87.418-151.408
			c1.419-2.457,1.419-5.486,0-7.944c-1.419-2.457-4.041-3.972-6.879-3.972h-40.787l-15.288-26.479h68.775
			c4.388,0,7.944-3.557,7.944-7.944c0-4.387-3.556-7.944-7.944-7.944h-77.947L262.885,3.972C261.465,1.514,258.844,0,256.005,0
			s-5.46,1.514-6.879,3.972l-69.317,120.056H41.175c-2.839,0-5.46,1.514-6.879,3.972c-1.419,2.458-1.419,5.486,0,7.944
			l69.318,120.057l-28.099,48.662c-2.194,3.799-0.892,8.658,2.907,10.851c1.251,0.722,2.617,1.066,3.964,1.066
			c2.745,0,5.414-1.425,6.887-3.973l75.251-130.325h30.578L107.685,333.69c-1.419,2.457-1.419,5.486,0,7.944
			c1.419,2.457,4.041,3.972,6.879,3.972h40.787l15.288,26.479H54.934l18.567-32.158c2.193-3.799,0.892-8.658-2.907-10.851
			c-3.798-2.195-8.659-0.893-10.851,2.907l-25.446,44.074c-1.419,2.457-1.419,5.486,0,7.944c1.419,2.457,4.041,3.972,6.879,3.972
			h138.637l69.314,120.056c1.419,2.458,4.041,3.972,6.879,3.972s5.46-1.514,6.879-3.972l69.317-120.056h138.623
			c2.839,0,5.46-1.515,6.879-3.972c1.419-2.458,1.419-5.486,0-7.944L408.389,256.003z M374.759,314.253l8.929,15.465h-17.856
			L374.759,314.253z M383.688,182.282l-8.929,15.464l-8.928-15.464H383.688z M137.251,197.745l-8.928-15.463h17.856L137.251,197.745
			z M114.565,166.395c-2.839,0-5.46,1.515-6.879,3.972c-1.419,2.457-1.419,5.486,0,7.944l20.393,35.321l-15.292,26.483
			L54.934,139.916h219.173l15.288,26.479H114.565z M247.078,124.028l8.928-15.464l8.928,15.464H247.078z M213.449,182.282h85.118
			l30.858,53.448c1.472,2.548,4.141,3.973,6.887,3.973c1.347,0,2.715-0.344,3.964-1.065c3.8-2.194,5.101-7.053,2.907-10.852
			l-80.298-139.08c-1.419-2.458-4.041-3.972-6.879-3.972s-5.46,1.514-6.879,3.972l-20.394,35.323h-30.578l57.852-100.197
			l109.581,189.802l-67.024,116.084h-85.12l-42.559-73.714L213.449,182.282z M128.323,329.718l8.929-15.464l8.928,15.464H128.323z
			 M256.005,488.17L146.424,298.368l15.286-26.475l87.416,151.402c1.419,2.457,4.041,3.972,6.879,3.972s5.46-1.515,6.879-3.972
			l20.394-35.323h30.578L256.005,488.17z M247.077,387.972h17.856l-8.928,15.464L247.077,387.972z M237.904,372.083v0.001
			l-15.288-26.479h174.83c2.839,0,5.46-1.515,6.879-3.972c1.419-2.457,1.419-5.486,0-7.944l-20.394-35.324l15.286-26.476
			l57.849,100.194H237.904z"/>
	</g>
</g>
<g>
</g>
<g>
</g>
<g>
</g>
<g>
</g>
<g>
</g>
<g>
</g>
<g>
</g>
<g>
</g>
<g>
</g>
<g>
</g>
<g>
</g>
<g>
</g>
<g>
</g>
<g>
</g>
<g>
</g>
</svg>
